# xmcd
#
# Track frame offsets:
#	150
#	14713
#	31528
#	46255
#	66963
#	91508
#	108695
#	130155
#	159380
#	175683
#	192358
#	207608
#	223843
#
# Disc length: 3236 seconds
#
# Revision: 1
# Processed by: cddbd v1.5.2PL0 Copyright (c) Steve Scherf et al.
# Submitted via: audiograbber 1.83.01
#
DISCID=b30ca20d
DTITLE=Eric Clapton - Unplugged
DYEAR=1900
DGENRE=
TTITLE0=Signe
TTITLE1=Before you acuse me
TTITLE2=Hey hey
TTITLE3=Tears in heaven
TTITLE4=Lonely stranger
TTITLE5=Nobody knows yoy when your're down and out
TTITLE6=Layia
TTITLE7=Running on faith
TTITLE8=Walkin blues
TTITLE9=Alberta
TTITLE10=San Fransisco bay blues
TTITLE11=Malted milk
TTITLE12=Rollin and tmblin
EXTD=
EXTT0=
EXTT1=
EXTT2=
EXTT3=
EXTT4=
EXTT5=
EXTT6=
EXTT7=
EXTT8=
EXTT9=
EXTT10=
EXTT11=
EXTT12=
PLAYORDER=
